<?xml version="1.0" encoding="utf-8"?>
<!-- Comet icon by Arthur Shlain from Usefulicons.com -->
<svg xmlns="http://www.w3.org/2000/svg" xmlns:xlink="http://www.w3.org/1999/xlink" xml:space="preserve" version="1.1" x="0px" y="0px" viewBox="0 0 100 100" width="400px" height="400px"><g style="fill: #f91a1a"><path d="M15,70C15,78.3,21.7,85,30,85S45,78.3,45,70C45,61.7,38.3,55,30,55S15,61.7,15,70ZM30,77.5C25.9,77.5,22.5,74.1,22.5,70C22.5,65.9,25.9,62.5,30,62.5C34.1,62.5,37.5,65.9,37.5,70C37.5,74.1,34.1,77.5,30,77.5Z" stroke="none"></path><path d="M44.1,84.1C40.4,87.9,35.3,90,30,90S19.6,87.9,15.9,84.1C12.1,80.4,10,75.3,10,70S12.1,59.6,15.9,55.8L39.3,31.7L35.7,28.2L12.3,52.3C7.6,57,5,63.3,5,70S7.6,83,12.3,87.7C17,92.4,23.3,95,30,95S43,92.4,47.7,87.7L71.8,64.3L68.3,60.7L44.1,84.1Z" stroke="none"></path><path d="M33.264,45.771L60.77,18.265L64.306,21.8L36.799,49.306L33.264,45.771Z" stroke="none"></path><path d="M50.764,63.271L78.27,35.765L81.805,39.3L54.299,66.806L50.764,63.271Z" stroke="none"></path><path d="M48.269,48.266L90.765,5.769L94.301,9.305L51.804,51.802L48.269,48.266Z" stroke="none"></path></g></svg>