<?xml version="1.0" encoding="utf-8"?>
<!-- Jupiter icon by Arthur Shlain from Usefulicons.com -->
<svg xmlns="http://www.w3.org/2000/svg" xmlns:xlink="http://www.w3.org/1999/xlink" xml:space="preserve" version="1.1" x="0px" y="0px" viewBox="0 0 100 100" width="400px" height="400px"><g style="fill: #249af5"><path d="M50,5C25.187,5,5,25.187,5,50s20.187,45,45,45s45-20.187,45-45S74.813,5,50,5z M86.745,42.5c0.332,1.63,0.55,3.301,0.662,5
	H60v5h27.407c-0.112,1.699-0.33,3.37-0.662,5H50v5h35.35c-0.613,1.728-1.349,3.398-2.198,5H40v5h39.98
	c-6.848,9.102-17.737,15-29.98,15c-6.796,0-13.169-1.826-18.672-5H50v-5H24.54c-1.65-1.529-3.165-3.2-4.52-5H30v-5H16.848
	c-0.849-1.602-1.585-3.272-2.198-5H40v-5H13.255c-0.332-1.63-0.55-3.301-0.662-5H50v-5H12.593c0.112-1.699,0.33-3.37,0.662-5H60v-5
	H14.65c0.613-1.728,1.349-3.398,2.198-5H70v-5H20.02c6.848-9.102,17.737-15,29.98-15c6.796,0,13.169,1.826,18.672,5H50v5h25.46
	c4.412,4.088,7.84,9.219,9.89,15H70v5H86.745z" stroke="none"></path></g></svg>