<?xml version="1.0" encoding="utf-8"?>
<!-- Meteorite icon by Arthur Shlain from Usefulicons.com -->
<svg xmlns="http://www.w3.org/2000/svg" xmlns:xlink="http://www.w3.org/1999/xlink" xml:space="preserve" version="1.1" x="0px" y="0px" viewBox="0 0 100 100" width="400px" height="400px"><g style="fill: #d704c5"><path d="M92.5,27.5L70,12.5L50,20L25,22.5L10,47.5L5,65L10,80L30.2,87.5L55,85L81.8,68.3L95,47.5L92.5,37.5L92.5,27.5ZM76.383,62.838L52.513,77.712L31.179,79.863L15.979,74.219L12.849,64.829L16.94,50.51L29.494,29.587L51.719,27.365L69.037,20.871L85,31.514L85,38.423L86.944,46.197L76.383,62.838Z" stroke="none"></path><path d="M46.118,35.264L39.672,32.041L25,44.014L25,50L30,50L30,46.387L40.328,37.959L43.882,39.736Z" stroke="none"></path><path d="M60.542,39.506L64.736,31.118L60.264,28.882L54.458,40.494L61.465,47.5L70,47.5L70,42.5L63.535,42.5Z" stroke="none"></path><path d="M62.5,61.084L52.102,67.324L43.106,65.075L41.894,69.925L52.898,72.676L67.5,63.916L67.5,55L62.5,55Z" stroke="none"></path><path d="M30.215,68.75L27.285,68.75L24.11,65.575L26.122,59.541L21.378,57.959L18.39,66.925L25.215,73.75L32.285,73.75L35.518,70.518L31.982,66.982Z" stroke="none"></path></g></svg>