<?xml version="1.0" encoding="utf-8"?>
<!-- Moon Rover icon by Arthur Shlain from Usefulicons.com -->
<svg xmlns="http://www.w3.org/2000/svg" xmlns:xlink="http://www.w3.org/1999/xlink" xml:space="preserve" version="1.1" x="0px" y="0px" viewBox="0 0 100 100" width="400px" height="400px"><g style="fill: #f1d30e"><path d="M82.5,60c-0.309,0-0.611,0.024-0.914,0.046l5.73-17.638l-7.133-2.317L74.527,57.5H55V70H42.248
	c-0.997-4.891-4.857-8.751-9.748-9.748V38.964l-5.183-5.183c4.035-5.715,3.509-13.666-1.606-18.781l-8.588,8.588l-5.355-5.355
	l-3.535,3.535l5.355,5.355L5,35.711C7.86,38.57,11.607,40,15.355,40c2.956,0,5.906-0.904,8.426-2.683l3.719,3.719v19.216
	c-3.054,0.622-5.696,2.37-7.5,4.78V57.5H5V75h12.752C18.913,80.699,23.963,85,30,85s11.087-4.301,12.248-10h28.004
	c1.161,5.699,6.211,10,12.248,10C89.393,85,95,79.393,95,72.5S89.393,60,82.5,60z M22.175,32.175C20.354,33.997,17.932,35,15.355,35
	c-0.785,0-1.556-0.093-2.299-0.274l11.665-11.665C25.491,26.226,24.642,29.708,22.175,32.175z M15,70h-5v-5h5V70z M30,77.5
	c-2.757,0-5-2.243-5-5s2.243-5,5-5s5,2.243,5,5S32.757,77.5,30,77.5z M70.252,70H60v-5h12.524C71.426,66.456,70.629,68.15,70.252,70
	z M82.5,77.5c-2.757,0-5-2.243-5-5s2.243-5,5-5s5,2.243,5,5S85.257,77.5,82.5,77.5z" stroke="none"></path></g></svg>