<?xml version="1.0" encoding="utf-8"?>
<!-- Satellite icon by Arthur Shlain from Usefulicons.com -->
<svg xmlns="http://www.w3.org/2000/svg" xmlns:xlink="http://www.w3.org/1999/xlink" xml:space="preserve" version="1.1" x="0px" y="0px" viewBox="0 0 100 100" width="400px" height="400px"><g style="fill: #757a79"><path d="M64.268,60.732l-2.5-2.5L75,45l-8.232-8.232l4.451-4.451c2.52,1.779,5.47,2.683,8.426,2.683
	c3.748,0,7.496-1.43,10.355-4.289l-8.588-8.588l5.355-5.355l-3.535-3.535l-5.355,5.355L69.289,10
	c-5.115,5.115-5.641,13.066-1.606,18.781l-4.451,4.451L55,25L41.768,38.232l-2.5-2.5L45,30L20,5L5,20l25,25l5.732-5.732l2.5,2.5
	L25,55l8.232,8.232l-4.451,4.451C26.261,65.904,23.312,65,20.355,65C16.607,65,12.86,66.43,10,69.289l8.588,8.588l-5.355,5.355
	l3.535,3.535l5.355-5.355L30.711,90c5.115-5.115,5.641-13.066,1.606-18.781l4.451-4.451L45,75l13.232-13.232l2.5,2.5L55,70l25,25
	l15-15L70,55L64.268,60.732z M70.279,18.061l11.665,11.665C81.2,29.907,80.43,30,79.645,30c-2.576,0-4.998-1.003-6.82-2.825
	C70.358,24.708,69.509,21.226,70.279,18.061z M12.071,20L20,12.071l7.197,7.197l-7.929,7.929L12.071,20z M30,37.929l-7.197-7.197
	l7.929-7.929L37.929,30L30,37.929z M29.721,81.939L18.056,70.274C18.8,70.093,19.57,70,20.355,70c2.576,0,4.998,1.003,6.82,2.825
	C29.642,75.292,30.491,78.774,29.721,81.939z M45,64.393L35.607,55L55,35.607L64.393,45L45,64.393z M87.929,80L80,87.929
	l-7.197-7.197l7.929-7.929L87.929,80z M69.268,77.197L62.071,70L70,62.071l7.197,7.197L69.268,77.197z" stroke="none"></path></g></svg>