<?xml version="1.0" encoding="utf-8"?>
<!-- Saturn icon by Arthur Shlain from Usefulicons.com -->
<svg xmlns="http://www.w3.org/2000/svg" xmlns:xlink="http://www.w3.org/1999/xlink" xml:space="preserve" version="1.1" x="0px" y="0px" viewBox="0 0 100 100" width="400px" height="400px"><g style="fill: #dc9804"><path d="M50,20C33.431,20,20,33.431,20,50C20,60.613,25.516,69.931,33.832,75.264C40.223,71.696,48.264,65.899,57.082,57.081C65.899,48.264,71.697,40.222,75.265,33.831C69.931,25.516,60.613,20,50,20Z" stroke="none"></path><path d="M20.687,90.035C27.47,90.035,36.473,85.932,45.616,79.668C47.048,79.879,48.509,80,50,80C66.569,80,80,66.569,80,50C80,48.508,79.879,47.045,79.667,45.611C88.856,32.199,93.393,19.087,87.153,12.847L85.385,14.615L87.153,12.847C81.843,7.537,71.554,10.037,60.34,16.56C62.384,17.193,64.345,18.016,66.211,18.995C74.57,14.738,81.02,13.786,83.618,16.382L83.618,16.382C88.64,21.404,80.429,40.806,60.618,60.617C40.806,80.428,21.407,88.64,16.383,83.617L16.383,83.617C13.786,81.019,14.738,74.569,18.995,66.21C18.015,64.344,17.193,62.383,16.56,60.339C10.036,71.553,7.536,81.842,12.847,87.153L14.615,85.385L12.847,87.153C14.834,89.14,17.518,90.035,20.687,90.035Z" stroke="none"></path></g></svg>