<?xml version="1.0" encoding="utf-8"?>
<!-- Solar System icon by Arthur Shlain from Usefulicons.com -->
<svg xmlns="http://www.w3.org/2000/svg" xmlns:xlink="http://www.w3.org/1999/xlink" xml:space="preserve" version="1.1" x="0px" y="0px" viewBox="0 0 100 100" width="400px" height="400px"><g style="fill: #24ecf0"><path d="M50,65c8.271,0,15-6.729,15-15s-6.729-15-15-15s-15,6.729-15,15S41.729,65,50,65z M50,42.5c4.136,0,7.5,3.364,7.5,7.5
	s-3.364,7.5-7.5,7.5s-7.5-3.364-7.5-7.5S45.864,42.5,50,42.5z" stroke="none"></path><path d="M50,80c16.542,0,30-13.458,30-30c0-14.015-9.662-25.813-22.674-29.091C56.594,17.535,53.589,15,50,15
	s-6.594,2.535-7.326,5.909C29.662,24.187,20,35.985,20,50C20,66.542,33.458,80,50,80z M50,20c1.378,0,2.5,1.122,2.5,2.5
	S51.378,25,50,25s-2.5-1.122-2.5-2.5S48.622,20,50,20z M43.329,25.911C44.573,28.335,47.093,30,50,30s5.427-1.665,6.671-4.089
	C67.227,28.838,75,38.525,75,50c0,13.785-11.215,25-25,25S25,63.785,25,50C25,38.525,32.773,28.838,43.329,25.911z" stroke="none"></path><path d="M50,94.979c9.233,0,18.462-2.823,26.279-8.455c1.162,0.677,2.466,1.024,3.773,1.024c1.92,0,3.841-0.731,5.303-2.193
	c2.457-2.457,2.841-6.205,1.169-9.075c12.66-17.576,11.097-42.298-4.704-58.099c-17.545-17.546-46.095-17.546-63.64,0
	c-17.545,17.545-17.545,46.094,0,63.64C26.953,90.593,38.477,94.979,50,94.979z M81.82,81.82c-0.975,0.975-2.562,0.974-3.536,0
	c-0.975-0.975-0.975-2.561,0-3.536c0.487-0.487,1.127-0.731,1.768-0.731c0.64,0,1.28,0.244,1.768,0.731
	C82.794,79.259,82.794,80.845,81.82,81.82z M21.715,21.715C29.514,13.917,39.757,10.019,50,10.019s20.486,3.899,28.285,11.697
	c13.95,13.951,15.411,35.722,4.405,51.324c-2.67-0.999-5.797-0.433-7.941,1.71c-2.144,2.143-2.709,5.271-1.71,7.94
	c-15.602,11.006-37.373,9.546-51.324-4.405C6.12,62.688,6.12,37.312,21.715,21.715z" stroke="none"></path></g></svg>