<?xml version="1.0" encoding="utf-8"?>
<!-- Space Shuttle icon by Arthur Shlain from Usefulicons.com -->
<svg xmlns="http://www.w3.org/2000/svg" xmlns:xlink="http://www.w3.org/1999/xlink" xml:space="preserve" version="1.1" x="0px" y="0px" viewBox="0 0 100 100" width="400px" height="400px"><g style="fill: #39c31d"><path d="M66.383,37.975C65.476,26.189,61.557,14.835,55,5L45,5C38.443,14.835,34.524,26.189,33.617,37.975L32.5,52.5L15,70L15,85L36.25,85L38.75,90L47.5,90L47.5,95L52.5,95L52.5,90L61.25,90L63.75,85L85,85L85,70L67.5,52.5L66.383,37.975ZM37.5,68.344L36.25,72.094L36.25,77.5L22.5,77.5L22.5,73.107L37.5,58.107L37.5,68.344ZM49.166,12.5L50.834,12.5C52.441,15.283,53.812,18.192,54.963,21.183C53.466,20.423,51.778,20,50,20S46.534,20.423,45.037,21.183C46.188,18.192,47.559,15.283,49.166,12.5ZM47.5,82.5L43.385,82.5L41.25,78.229L41.25,72.905L42.219,70L47.5,70L47.5,82.5ZM42.5,65L42.5,41.801C42.5,37.531,43.122,33.294,44.349,29.205C45.104,26.69,47.375,25,50,25S54.896,26.69,55.651,29.205C56.878,33.294,57.5,37.532,57.5,41.802L57.5,65L42.5,65ZM58.75,78.229L56.615,82.5L52.5,82.5L52.5,70L57.781,70L58.75,72.906L58.75,78.229ZM77.5,77.5L63.75,77.5L63.75,72.094L62.5,68.344L62.5,58.107L77.5,73.107L77.5,77.5Z" stroke="none"></path><path d="M47.5,35L52.5,35L52.5,40L47.5,40L47.5,35Z" stroke="none"></path><path d="M47.5,42.5L52.5,42.5L52.5,47.5L47.5,47.5L47.5,42.5Z" stroke="none"></path><path d="M47.5,50L52.5,50L52.5,55L47.5,55L47.5,50Z" stroke="none"></path><path d="M47.5,57.5L52.5,57.5L52.5,62.5L47.5,62.5L47.5,57.5Z" stroke="none"></path></g></svg>