<?xml version="1.0" encoding="utf-8"?>
<!-- Sun icon by Arthur Shlain from Usefulicons.com -->
<svg xmlns="http://www.w3.org/2000/svg" xmlns:xlink="http://www.w3.org/1999/xlink" xml:space="preserve" version="1.1" x="0px" y="0px" viewBox="0 0 100 100" width="400px" height="400px"><g style="fill: #a0e114"><path d="M89.106,55.148L95.079,50L89.106,44.852L93.542,38.333L86.441,34.906L89.039,27.461L81.292,25.988L81.875,18.125L74.012,18.708L72.54,10.96L65.095,13.558L61.668,6.457L55.149,10.893L50,4.921L44.852,10.894L38.333,6.458L34.906,13.559L27.46,10.96L25.987,18.707L18.124,18.124L18.707,25.987L10.96,27.46L13.558,34.905L6.457,38.332L10.893,44.851L4.921,50L10.894,55.148L6.458,61.667L13.559,65.094L10.96,72.54L18.707,74.013L18.124,81.876L25.987,81.293L27.46,89.04L34.905,86.442L38.332,93.543L44.851,89.107L50,95.079L55.148,89.106L61.667,93.542L65.094,86.441L72.539,89.039L74.012,81.292L81.875,81.875L81.292,74.012L89.039,72.539L86.441,65.094L93.542,61.667L89.106,55.148ZM68.71,82.408L62.53,80.251L59.685,86.146L54.273,82.464L50,87.421L45.727,82.464L40.315,86.146L37.47,80.251L31.29,82.408L30.067,75.978L23.539,76.461L24.022,69.933L17.592,68.71L19.749,62.53L13.854,59.685L17.536,54.273L12.579,50L17.536,45.727L13.854,40.315L19.749,37.47L17.592,31.29L24.022,30.067L23.539,23.539L30.067,24.022L31.29,17.592L37.47,19.749L40.315,13.854L45.727,17.536L50,12.579L54.273,17.536L59.685,13.854L62.53,19.749L68.71,17.592L69.933,24.022L76.461,23.539L75.978,30.067L82.408,31.29L80.251,37.47L86.146,40.315L82.464,45.727L87.421,50L82.464,54.273L86.146,59.685L80.251,62.53L82.408,68.71L75.978,69.933L76.461,76.461L69.933,75.978L68.71,82.408Z" stroke="none"></path><path d="M50,22.5C34.836,22.5,22.5,34.836,22.5,50S34.836,77.5,50,77.5S77.5,65.164,77.5,50S65.164,22.5,50,22.5ZM50,75C36.215,75,25,63.785,25,50S36.215,25,50,25S75,36.215,75,50S63.785,75,50,75Z" stroke="none"></path></g></svg>