<?xml version="1.0" encoding="utf-8"?>
<!-- Sun icon by Arthur Shlain from Usefulicons.com -->
<svg xmlns="http://www.w3.org/2000/svg" xmlns:xlink="http://www.w3.org/1999/xlink" xml:space="preserve" version="1.1" x="0px" y="0px" viewBox="0 0 100 100" width="400px" height="400px"><g style="fill: #ff9500"><path d="M71.122,32.413L83.587,19.948L80.052,16.413L67.587,28.878C63.418,25.401,58.208,23.136,52.5,22.619L52.5,5L47.5,5L47.5,22.619C41.792,23.136,36.582,25.401,32.413,28.878L19.948,16.413L16.413,19.948L28.878,32.413C25.401,36.582,23.136,41.792,22.619,47.5L5,47.5L5,52.5L22.619,52.5C23.136,58.208,25.401,63.418,28.878,67.587L16.413,80.052L19.948,83.587L32.413,71.122C36.582,74.599,41.792,76.864,47.5,77.381L47.5,95L52.5,95L52.5,77.381C58.208,76.864,63.418,74.599,67.587,71.122L80.052,83.587L83.587,80.052L71.122,67.587C74.599,63.418,76.864,58.208,77.381,52.5L95,52.5L95,47.5L77.381,47.5C76.864,41.792,74.599,36.582,71.122,32.413ZM50,70C38.972,70,30,61.028,30,50S38.972,30,50,30S70,38.972,70,50S61.028,70,50,70Z" stroke="none"></path><path d="M35.089,7.47L39.156,17.286L34.536,19.2L30.47,9.383L35.089,7.47Z" stroke="none"></path><path d="M60.842,82.718L65.462,80.805L69.527,90.621L64.907,92.534L60.842,82.718Z" stroke="none"></path><path d="M7.471,64.912L17.287,60.846L19.201,65.465L9.384,69.531L7.471,64.912Z" stroke="none"></path><path d="M92.529,35.091L82.713,39.157L80.799,34.538L90.616,30.472L92.529,35.091Z" stroke="none"></path><path d="M9.381,30.47L19.198,34.536L17.284,39.156L7.468,35.09L9.381,30.47Z" stroke="none"></path><path d="M90.619,69.527L80.802,65.461L82.716,60.841L92.532,64.907L90.619,69.527Z" stroke="none"></path><path d="M64.912,7.466L69.531,9.379L65.466,19.195L60.847,17.282L64.912,7.466Z" stroke="none"></path><path d="M30.472,90.62L34.539,80.804L39.158,82.717L35.092,92.534L30.472,90.62Z" stroke="none"></path></g></svg>