<?xml version="1.0" encoding="iso-8859-1"?>
<!-- Uploaded to: SVG Repo, www.svgrepo.com, Generator: SVG Repo Mixer Tools -->
<svg fill="#000000" version="1.1" id="Layer_1" xmlns="http://www.w3.org/2000/svg" xmlns:xlink="http://www.w3.org/1999/xlink" 
	 viewBox="0 0 512 512" xml:space="preserve">
<g>
	<g>
		<g>
			<path d="M342.607,245.494l-25.526-25.527l-7.429-121.415l18.201-18.201l126.645-34.693l24.419,24.419L512,36.993L478.917,3.911
				l-26.152,26.151L326.122,64.753l-24.419-24.419L268.62,73.418l25.527,25.527l7.429,121.415l-17.55,17.551l-219.298,11.51
				l-25.164-25.164L6.48,257.341l25.212,25.212l-6.24,167.001L0,475.006l33.084,33.084l26.078-26.078l225.854-55.867l24.51,24.51
				l33.083-33.084l-25.333-25.333V270.828L342.607,245.494z M478.917,25.831l11.162,11.162l-11.162,11.163l-11.163-11.163
				L478.917,25.831z M290.54,73.418l11.163-11.163l11.163,11.163l-11.163,11.163L290.54,73.418z M28.399,257.341l11.163-11.163
				l11.163,11.163l-11.163,11.163L28.399,257.341z M33.084,486.168L21.92,475.005l11.163-11.162l11.163,11.162L33.084,486.168z
				 M283.447,410.564L57.593,466.432l-16.639-16.638l6.24-167l17.869-17.87l219.298-11.51l17.414,17.414v121.41L283.447,410.564z
				 M320.687,417.57l-11.162,11.163l-11.163-11.163l11.163-11.162L320.687,417.57z M309.525,256.657l-11.163-11.163l11.163-11.163
				l11.162,11.163L309.525,256.657z"/>
			<rect x="143.925" y="137.404" width="15.645" height="15.5"/>
			<rect x="104.823" y="90.479" width="15.645" height="15.5"/>
			<rect x="26.604" y="160.871" width="15.645" height="15.5"/>
			<rect x="175.214" y="301.665" width="15.645" height="15.5"/>
			<rect x="89.178" y="379.879" width="15.645" height="15.5"/>
			<rect x="261.251" y="356.411" width="15.645" height="15.5"/>
			<rect x="222.149" y="465.915" width="15.645" height="15.5"/>
			<rect x="386.4" y="442.448" width="15.645" height="15.5"/>
			<rect x="472.436" y="473.738" width="15.645" height="15.5"/>
			<rect x="417.689" y="262.552" width="15.645" height="15.5"/>
			<rect x="480.259" y="215.618" width="15.645" height="15.5"/>
			<rect x="417.689" y="129.581" width="15.645" height="15.5"/>
			<rect x="190.859" y="12.258" width="15.645" height="15.5"/>
			<rect x="222.149" y="184.338" width="15.645" height="15.5"/>
			<path d="M448.972,340.768c-12.899,0-23.394,10.494-23.394,23.394c0,12.9,10.494,23.394,23.394,23.394
				c12.9,0,23.394-10.494,23.394-23.394C472.366,351.261,461.872,340.768,448.972,340.768z M448.972,372.054
				c-4.352,0-7.894-3.541-7.894-7.894c0-4.352,3.541-7.894,7.894-7.894c4.352,0,7.894,3.541,7.894,7.894
				C456.866,368.513,453.324,372.054,448.972,372.054z"/>
			<path d="M65.712,74.688c12.899,0,23.394-10.494,23.394-23.394c0-12.898-10.494-23.393-23.394-23.393S42.318,38.396,42.318,51.295
				C42.318,64.194,52.811,74.688,65.712,74.688z M65.712,43.402c4.352,0,7.894,3.54,7.894,7.893c0,4.352-3.541,7.894-7.894,7.894
				s-7.894-3.541-7.894-7.894C57.818,46.942,61.359,43.402,65.712,43.402z"/>
			<path d="M175.215,325.124c-12.899,0-23.394,10.494-23.394,23.394c0,12.9,10.494,23.394,23.394,23.394
				c12.898,0,23.393-10.494,23.393-23.394C198.608,335.617,188.114,325.124,175.215,325.124z M175.215,356.41
				c-4.352,0-7.894-3.541-7.894-7.894c0-4.352,3.541-7.894,7.894-7.894c4.352,0,7.893,3.541,7.893,7.894
				C183.108,352.869,179.567,356.41,175.215,356.41z"/>
		</g>
	</g>
</g>
</svg>