<svg xmlns="http://www.w3.org/2000/svg" xmlns:xlink="http://www.w3.org/1999/xlink" version="1.1" x="0px" y="0px" viewBox="0 0 512 640" style="enable-background:new 0 0 512 512;" xml:space="preserve"><g><g><path d="M346,416c-11.028,0-20,8.972-20,20s8.972,20,20,20s20-8.972,20-20S357.028,416,346,416z"/><path d="M246,416c-11.028,0-20,8.972-20,20s8.972,20,20,20c11.028,0,20-8.972,20-20S257.028,416,246,416z"/><path d="M146,416c-11.028,0-20,8.972-20,20s8.972,20,20,20s20-8.972,20-20S157.028,416,146,416z"/><path d="M476,341c0-13.785-11.215-25-25-25h-24.217l-23.264-26.585c-1.897-2.169-4.638-3.413-7.52-3.415v-50h40    c5.522,0,10-4.477,10-10v-70c0-5.523-4.478-10-10-10s-10,4.477-10,10v60h-40c-5.522,0-10,4.477-10,10v60h-20v-90h30    c5.522,0,10-4.477,10-10v-60c0-5.523-4.478-10-10-10H276c-5.522,0-10,4.477-10,10v60c0,5.523,4.478,10,10,10h30v90h-10v-30    c0-5.523-4.478-10-10-10s-10,4.477-10,10v30h-10v-60c0-5.523-4.478-10-10-10c-5.523,0-10,4.477-10,10v60h-22.25v-51.208    c43.985-47.115,43.019-120.868-2.929-166.816c-3.905-3.905-10.237-3.905-14.143,0l-36.461,36.461    C74.871,85.369,81.235,86.572,79.946,86.508c-4.178-0.193-7.865,2.163-9.539,5.775c-0.958,2.072-1.095,3.991-0.742,6.163    l17.757,88.786l-36.461,36.461c-3.905,3.905-3.905,10.237,0,14.142c25.946,25.945,60.911,37.867,96.028,34.67V286H56    c-5.138,0-9.439,3.893-9.95,9.005l-10,100c-0.188,1.881,0.161,3.776,1.006,5.467L49.82,426H36c-5.523,0-10,4.478-10,10    s4.477,10,10,10c21.407,0,39.633,0,61.006,0c4.646,22.795,24.847,40,48.994,40s44.348-17.205,48.994-40h2.013    c4.646,22.795,24.847,40,48.994,40s44.349-17.205,48.994-40h2.012c4.646,22.795,24.848,40,48.994,40s44.349-17.205,48.994-40H436    c3.788,0,7.25-2.14,8.944-5.528l30-60c1.815-3.632,1.255-8.001-1.419-11.057l-7.437-8.498C472.105,356.347,476,349.121,476,341z     M456,341c0,2.757-2.243,5-5,5h-50c-2.757,0-5-2.243-5-5s2.243-5,5-5h50C453.757,336,456,338.243,456,341z M286,136h90v40h-90V136    z M326,196h10v90h-10V196z M95.754,126.911l11.68,11.68c3.904,3.904,10.236,3.907,14.142,0c3.905-3.905,3.906-10.237,0-14.142    l-11.681-11.681l43.325,8.665l-48.802,48.802L95.754,126.911z M72.521,230.418L213.403,89.536    c31.694,38.623,30.591,96.84-6.724,134.156c0,0-0.001,0.001-0.002,0.002C169.369,261.004,111.159,262.124,72.521,230.418z     M166.99,268.963c13.116-3.491,25.52-9.195,36.76-16.925V286h-36.76V268.963z M146,466c-16.542,0-30-13.458-30-30s13.458-30,30-30    s30,13.458,30,30S162.542,466,146,466z M246,466c-16.542,0-30-13.458-30-30s13.458-30,30-30s30,13.458,30,30S262.542,466,246,466z     M346,466c-16.542,0-30-13.458-30-30s13.458-30,30-30s30,13.458,30,30S362.542,466,346,466z M429.819,426h-34.825    c-4.646-22.795-24.848-40-48.994-40s-44.349,17.205-48.994,40h-2.012c-4.646-22.795-24.848-40-48.994-40s-44.348,17.205-48.994,40    h-2.013c-4.646-22.795-24.847-40-48.994-40s-44.348,17.205-48.994,40H72.18l-15.942-31.884L60.05,356H346c5.522,0,10-4.478,10-10    s-4.478-10-10-10H62.05l3-30h326.407l8.768,10.02C386.798,316.432,376,327.475,376,341c0,13.785,11.215,25,25,25h42.962    l10.092,11.533L429.819,426z"/><path d="M191.868,158.045c-3.905-3.905-10.237-3.905-14.143,0l-36.694,36.694c-3.905,3.905-3.905,10.237,0,14.143    c3.904,3.904,10.237,3.905,14.143,0l36.694-36.694C195.772,168.282,195.772,161.95,191.868,158.045z"/><path d="M446,106c22.056,0,40-17.944,40-40s-17.944-40-40-40s-40,17.944-40,40S423.944,106,446,106z M446,46    c11.028,0,20,8.972,20,20s-8.972,20-20,20s-20-8.972-20-20S434.972,46,446,46z"/><path d="M121,76c13.785,0,25-11.215,25-25s-11.215-25-25-25S96,37.215,96,51S107.215,76,121,76z M121,46c2.757,0,5,2.243,5,5    s-2.243,5-5,5s-5-2.243-5-5S118.243,46,121,46z"/><circle cx="366" cy="36" r="10"/><circle cx="296" cy="76" r="10"/><circle cx="466" cy="286" r="10"/><circle cx="176" cy="36" r="10"/><circle cx="56" cy="166" r="10"/></g></g><text x="0" y="527" fill="#000000" font-size="5px" font-weight="bold" font-family="'Helvetica Neue', Helvetica, Arial-Unicode, Arial, Sans-serif">Created by Flatart</text><text x="0" y="532" fill="#000000" font-size="5px" font-weight="bold" font-family="'Helvetica Neue', Helvetica, Arial-Unicode, Arial, Sans-serif">from the Noun Project</text></svg>